<?xml version="1.0" encoding="UTF-8"?>
<!-- Generator: visioncortex VTracer 0.6.12 -->
<svg version="1.1" xmlns="http://www.w3.org/2000/svg" width="251" height="209">
<path d="M0 0 C5.6 0 11.2 0 17 0 C17 0.3 17 0.7 17 1 C11.4 1 5.8 1 0 1 C0 0.7 0 0.3 0 0 Z M-3 1 C0 2 0 2 0 2 Z M17 1 C19.3 1 21.6 1 24 1 C24 1.3 24 1.7 24 2 C21.7 2 19.4 2 17 2 C17 1.7 17 1.3 17 1 Z M-5 2 C-3 3 -3 3 -3 3 Z M47.7 8.6 C57.9 10.9 68.1 13.2 78.3 15.5 C132.3 27.7 132.3 27.7 143 33 C144 38 144.2 42.3 144.2 47.3 C144.2 49.3 144.2 51.2 144.2 53.2 C144.3 61.9 144.3 70.6 144.4 79.4 C144.4 84 144.4 88.6 144.4 93.2 C144.5 99.9 144.5 106.5 144.5 113.2 C144.5 115.2 144.6 117.3 144.6 119.4 C144.6 121.4 144.6 123.3 144.6 125.3 C144.6 127 144.6 128.6 144.6 130.4 C143.6 138.3 139.9 142.2 134 147.4 C129 151 129 151 124 153 C123 154 122 155 121 156 C112.8 162.5 104.5 168.5 95.8 174.4 C92.4 176.7 89 179.2 85.7 181.6 C81 185 81 185 78 186 C74.8 188.5 71.7 191.1 68.5 193.7 C64 197 64 197 59 198 C58 198.3 57 198.7 56 199 C48.2 199.4 41.6 198.2 34 196.1 C31.7 195.5 29.4 194.9 27 194.3 C24.7 193.7 22.3 193 19.8 192.4 C17.5 191.8 15.1 191.1 12.7 190.5 C8.1 189.3 3.4 188 -1.3 186.8 C-7.6 185.1 -13.9 183.5 -20.2 181.8 C-29.3 179.5 -38.3 177 -47.2 174.4 C-57.5 171.5 -67.8 168.7 -78.1 166.1 C-82.5 164.9 -86.7 163.5 -91 162 C-92 161.7 -93 161.3 -94 161 C-96.8 155.1 -97.4 150.1 -97.4 143.6 C-97.4 141.7 -97.4 139.8 -97.4 137.9 C-97.4 135.9 -97.4 133.9 -97.4 131.9 C-97.4 129.8 -97.4 127.7 -97.4 125.6 C-97.5 121.3 -97.5 116.9 -97.4 112.6 C-97.4 105.9 -97.5 99.2 -97.5 92.6 C-97.5 88.3 -97.5 84.1 -97.5 79.9 C-97.5 77.9 -97.5 75.9 -97.5 73.8 C-97.5 72 -97.5 70.1 -97.5 68.2 C-97.5 66.6 -97.5 64.9 -97.5 63.2 C-97 59 -97 59 -93 53 C-85.4 47.5 -85.4 47.5 -81 46 C-76.4 43.7 -73.1 41.3 -69 38 C-68.2 37.8 -68.2 37.8 -64 37 C-61 34.7 -58 32.4 -55 30 C-53.4 29.7 -51.7 29.3 -50 29 C-50 28.3 -50 27.7 -50 27 C-47.7 26.3 -45.4 25.7 -43 25 C-43 24.3 -43 23.7 -43 23 C-41.4 22.7 -39.7 22.3 -38 22 C-38 21.3 -38 20.7 -38 20 C-36.6 19.5 -35.1 19.1 -33.6 18.6 C-29 17 -29 17 -27 15 C-25.7 14.3 -24.4 13.7 -23 13 C-22 12 -21 11 -20 10 C-19.2 9.8 -19.2 9.8 -15 9 C-12.8 7.8 -10.5 6.6 -8.2 5.4 C9.6 -3 29.5 4.4 47.7 8.6 Z M142 35 C143 37 143 37 143 37 Z M-96 59 C-95 61 -95 61 -95 61 Z M-96 73 C-96 99.4 -96 125.8 -96 153 C-95.7 153 -95.3 153 -95 153 C-95 126.6 -95 100.2 -95 73 C-95.3 73 -95.7 73 -96 73 Z M142 130 C142 131.7 142 133.3 142 135 C142.3 135 142.7 135 143 135 C143 133.3 143 131.7 143 130 C142.7 130 142.3 130 142 130 Z M-95 154 C-94 157 -94 157 -94 157 Z M24 2 C25.7 2 27.3 2 29 2 C29 2.3 29 2.7 29 3 C27.3 3 25.7 3 24 3 C24 2.7 24 2.3 24 2 Z M-7 3 C-5 4 -5 4 -5 4 Z M29 3 C32 4 32 4 32 4 Z M-9 4 C-7 5 -7 5 -7 5 Z M32 4 C35 5 35 5 35 5 Z M-11 5 C-9 6 -9 6 -9 6 Z M35 5 C36.7 5 38.3 5 40 5 C40 5.3 40 5.7 40 6 C38.3 6 36.7 6 35 6 C35 5.7 35 5.3 35 5 Z M-13 6 C-11 7 -11 7 -11 7 Z M40 6 C41.7 6 43.3 6 45 6 C45 6.3 45 6.7 45 7 C43.3 7 41.7 7 40 7 C40 6.7 40 6.3 40 6 Z M-15 7 C-13 8 -13 8 -13 8 Z M45 7 C46.7 7 48.3 7 50 7 C50 7.3 50 7.7 50 8 C48.3 8 46.7 8 45 8 C45 7.7 45 7.3 45 7 Z M-17 8 C-15 9 -15 9 -15 9 Z M50 8 C51.7 8 53.3 8 55 8 C55 8.3 55 8.7 55 9 C53.3 9 51.7 9 50 9 C50 8.7 50 8.3 50 8 Z M55 9 C59 10 59 10 59 10 Z M59 10 C63 11 63 11 63 11 Z M63 11 C67 12 67 12 67 12 Z M67 12 C68.7 12 70.3 12 72 12 C72 12.3 72 12.7 72 13 C70.3 13 68.7 13 67 13 C67 12.7 67 12.3 67 12 Z M72 13 C76 14 76 14 76 14 Z M76 14 C80 15 80 15 80 15 Z M-29 15 C-27 16 -27 16 -27 16 Z M80 15 C84 16 84 16 84 16 Z M-31 16 C-29 17 -29 17 -29 17 Z M84 16 C85.7 16 87.3 16 89 16 C89 16.3 89 16.7 89 17 C87.3 17 85.7 17 84 17 C84 16.7 84 16.3 84 16 Z M-33 17 C-31 18 -31 18 -31 18 Z M89 17 C90.7 17 92.3 17 94 17 C94 17.3 94 17.7 94 18 C92.3 18 90.7 18 89 18 C89 17.7 89 17.3 89 17 Z M94 18 C98 19 98 19 98 19 Z M98 19 C102 20 102 20 102 20 Z M102 20 C103.7 20 105.3 20 107 20 C107 20.3 107 20.7 107 21 C105.3 21 103.7 21 102 21 C102 20.7 102 20.3 102 20 Z M107 21 C111 22 111 22 111 22 Z M111 22 C114 23 114 23 114 23 Z M114 23 C117 24 117 24 117 24 Z M-45 24 C-43 25 -43 25 -43 25 Z M117 24 C118.7 24 120.3 24 122 24 C122 24.3 122 24.7 122 25 C120.3 25 118.7 25 117 25 C117 24.7 117 24.3 117 24 Z M122 25 C123.7 25 125.3 25 127 25 C127 25.3 127 25.7 127 26 C125.3 26 123.7 26 122 26 C122 25.7 122 25.3 122 25 Z M127 26 C130 27 130 27 130 27 Z M130 27 C133 28 133 28 133 28 Z M-52 28 C-50 29 -50 29 -50 29 Z M133 28 C136 29 136 29 136 29 Z M136 29 C138 30 138 30 138 30 Z M-62 34 C-60 35 -60 35 -60 35 Z M-64 35 C-62 36 -62 36 -62 36 Z M-66 36 C-64 37 -64 37 -64 37 Z M144 38 C144.3 38 144.7 38 145 38 C145 68 145 98.1 145 129 C144.7 129 144.3 129 144 129 C144 99 144 68.9 144 38 Z M-76 42 C-74 43 -74 43 -74 43 Z M-98 62 C-97.7 62 -97.3 62 -97 62 C-97 65.3 -97 68.6 -97 72 C-97.3 72 -97.7 72 -98 72 C-98 68.7 -98 65.4 -98 62 Z M-90 163 C-87 164 -87 164 -87 164 Z M-87 164 C-85 165 -85 165 -85 165 Z M-85 165 C-82 166 -82 166 -82 166 Z M-82 166 C-79 167 -79 167 -79 167 Z M-79 167 C-75 168 -75 168 -75 168 Z M-75 168 C-72 169 -72 169 -72 169 Z M-72 169 C-68 170 -68 170 -68 170 Z M-68 170 C-66.3 170 -64.7 170 -63 170 C-63 170.3 -63 170.7 -63 171 C-64.7 171 -66.3 171 -68 171 C-68 170.7 -68 170.3 -68 170 Z M-63 171 C-59 172 -59 172 -59 172 Z M-59 172 C-56 173 -56 173 -56 173 Z M-56 173 C-52 174 -52 174 -52 174 Z M-52 174 C-49 175 -49 175 -49 175 Z M-49 175 C-46 176 -46 176 -46 176 Z M-46 176 C-42 177 -42 177 -42 177 Z M-42 177 C-38 178 -38 178 -38 178 Z M-38 178 C-34 179 -34 179 -34 179 Z M-34 179 C-31 180 -31 180 -31 180 Z M-31 180 C-27 181 -27 181 -27 181 Z M-27 181 C-23 182 -23 182 -23 182 Z M-23 182 C-20 183 -20 183 -20 183 Z M-20 183 C-17 184 -17 184 -17 184 Z M-17 184 C-13 185 -13 185 -13 185 Z M-13 185 C-11.3 185 -9.7 185 -8 185 C-8 185.3 -8 185.7 -8 186 C-9.7 186 -11.3 186 -13 186 C-13 185.7 -13 185.3 -13 185 Z M-8 186 C-4 187 -4 187 -4 187 Z M-4 187 C0 188 0 188 0 188 Z M0 188 C4 189 4 189 4 189 Z M4 189 C8 190 8 190 8 190 Z M8 190 C11 191 11 191 11 191 Z M11 191 C15 192 15 192 15 192 Z M15 192 C19 193 19 193 19 193 Z M19 193 C23 194 23 194 23 194 Z M23 194 C27 195 27 195 27 195 Z M27 195 C31 196 31 196 31 196 Z M31 196 C34 197 34 197 34 197 Z M34 197 C38 198 38 198 38 198 Z M38 198 C42 199 42 199 42 199 Z M59 198 C61 199 61 199 61 199 Z M42 199 C46 200 46 200 46 200 Z M56 199 C59 200 59 200 59 200 Z M46 200 C49.3 200 52.6 200 56 200 C56 200.3 56 200.7 56 201 C52.7 201 49.4 201 46 201 C46 200.7 46 200.3 46 200 Z " fill="#704E34" transform="translate(102,4)"/>
<path d="M0 0 C2 0.7 4 1.3 6 2 C11 3 16 4 21 5 C22 5.3 23 5.7 24 6 C24.8 9 25.4 12 26 15 C26.2 15.3 26.2 15.3 27 17 C25.8 16.7 24.6 16.4 23.4 16.1 C16.7 14.7 9.9 13.9 3 13 C3 12.3 3 11.7 3 11 C1.8 10.9 0.6 10.8 -0.7 10.7 C-6.9 9.9 -12.9 8.5 -19 7 C-12.9 0.9 -8.5 -1.2 0 0 Z M-5 12 C0.3 13.1 5.7 14 11 15 C12.3 15.3 13.6 15.7 15 16 C15 16.7 15 17.3 15 18 C16.8 18.3 18.7 18.6 20.6 18.9 C27 20 27 20 34 22 C34 22.7 34 23.3 34 24 C30.4 24.3 26.7 24.7 23 25 C22.8 25.5 22.8 25.5 22 28 C20.7 27.3 19.4 26.7 18 26 C6.9 25.1 -2 27.6 -10.7 34.6 C-15 39 -15 39 -17 42 C-4.2 44.6 9.1 46.5 21 40 C22.3 38.8 23.5 37.7 24.8 36.5 C30.2 32 35.3 30.8 42 29 C44 28.3 46 27.7 48 27 C44.9 30.1 41.7 33.2 38.5 36.3 C32 43.1 28 48.2 28 58 C29.2 65.6 32.1 71.4 36 78 C40.5 73.5 41.8 67.9 44 62 C45 62 46 62 47 62 C47.2 64.3 47.5 66.6 47.7 68.9 C48.6 75.6 49.9 80.5 54 86 C57.8 88.6 57.8 88.6 61 90 C60.8 90.5 60.8 90.5 60 93 C68.5 97 68.5 97 73 97 C75.8 89.5 76.3 84.7 74 77 C72.7 74.6 71.4 72.3 70 70 C70.3 69.3 70.7 68.7 71 68 C74 68.9 77 69.9 80 71 C81.6 74.3 81.1 77.7 81.2 81.3 C81.2 83.1 81.2 84.9 81.2 86.7 C81.2 87.7 81.2 87.7 81.2 92.6 C81.2 94.5 81.2 96.5 81.2 98.5 C81.2 102.7 81.2 106.8 81.2 111 C81.2 117.4 81.3 123.8 81.3 130.2 C81.3 134.2 81.3 138.3 81.3 142.3 C81.3 144.2 81.4 146.2 81.4 148.1 C81.4 149.9 81.4 151.7 81.4 153.5 C81.4 154.3 81.4 154.3 81.4 158.3 C81 162 81 162 78 165 C70.9 165 65.7 163.8 58.9 162 C56.5 161.4 54.1 160.7 51.5 160.1 C48.9 159.4 46.2 158.6 43.6 157.9 C40.8 157.2 38.1 156.5 35.4 155.8 C29.7 154.3 24.1 152.8 18.5 151.3 C11.6 149.4 4.7 147.6 -2.1 145.8 C-8.5 144.1 -14.8 142.4 -21.1 140.8 C-23.4 140.1 -25.7 139.5 -28.1 138.9 C-30.3 138.3 -32.5 137.7 -34.7 137.1 C-36.6 136.6 -38.5 136.1 -40.5 135.6 C-57.2 130.8 -57.2 130.8 -62 126 C-62.5 122 -62.5 122 -62.6 117.1 C-62.6 115.3 -62.7 113.5 -62.7 111.6 C-62.7 109.6 -62.7 107.6 -62.7 105.5 C-62.7 103.5 -62.7 101.5 -62.8 99.4 C-62.8 95 -62.8 90.7 -62.8 86.4 C-62.8 79.8 -62.9 73.2 -63 66.6 C-63 62.4 -63 58.2 -63 54 C-63 53 -63 53 -63.1 48 C-63 34.3 -63 34.3 -57.8 27.9 C-44.7 20 -44.7 20 -41 20 C-41 19.3 -41 18.7 -41 18 C-39 17 -37 16 -35 15 C-33.4 14 -31.7 13 -30 12 C-29 12 -28 12 -27 12 C-27 11.3 -27 10.7 -27 10 C-19.4 7.5 -12.4 10.1 -5 12 Z M47 29 C47.3 30 47.7 31 48 32 C47 33.3 46 34.6 45 36 C45 31 45 31 47 29 Z M61 92 C63 93 63 93 63 93 Z M65 94 C66.7 94 68.3 94 70 94 C70 94.7 70 95.3 70 96 C68.3 95.7 66.7 95.3 65 95 C65 94.7 65 94.3 65 94 Z M72 94 C72 95 72 96 72 97 C71.3 96.7 70.7 96.3 70 96 C70.7 95.3 71.3 94.7 72 94 Z " fill="#D8A881" transform="translate(74,32)"/>
<path d="M0 0 C2 0.7 4 1.3 6 2 C11 3 16 4 21 5 C22 5.3 23 5.7 24 6 C24.8 9 25.4 12 26 15 C26.2 15.3 26.2 15.3 27 17 C25.8 16.7 24.6 16.4 23.4 16.1 C16.7 14.7 9.9 13.9 3 13 C3 12.3 3 11.7 3 11 C1.8 10.9 0.6 10.8 -0.7 10.7 C-6.9 9.9 -12.9 8.5 -19 7 C-12.9 0.9 -8.5 -1.2 0 0 Z M-5 12 C0.3 13.1 5.7 14 11 15 C12.3 15.3 13.6 15.7 15 16 C15 16.7 15 17.3 15 18 C16.8 18.3 18.7 18.6 20.6 18.9 C27 20 27 20 34 22 C34 22.7 34 23.3 34 24 C30.4 24.3 26.7 24.7 23 25 C22.8 25.5 22.8 25.5 22 28 C20.7 27.3 19.4 26.7 18 26 C6.9 25.1 -2 27.6 -10.7 34.6 C-15 39 -15 39 -17 42 C-4.2 44.6 9.1 46.5 21 40 C22.3 38.8 23.5 37.7 24.8 36.5 C30.2 32 35.3 30.8 42 29 C44 28.3 46 27.7 48 27 C44.9 30.1 41.7 33.2 38.5 36.3 C32 43.1 28 48.2 28 58 C28.9 62.7 29.8 66.7 32 71 C31 75 31 75 27 78 C26.5 77.8 26.5 77.8 24 77 C24 76.3 24 75.7 24 75 C23.3 75 22.7 75 22 75 C22 75.7 22 76.3 22 77 C21.5 76.8 21.5 76.8 19 76 C19.2 75.5 19.2 75.5 20 73 C18.3 73.7 16.7 74.3 15 75 C14.3 74.7 13.7 74.3 13 74 C12 74.7 11 75.3 10 76 C9.7 75.3 9.3 74.7 9 74 C8.3 74.3 8.3 74.3 5 76 C4.8 76.5 4.8 76.5 4 79 C11.5 81.1 11.5 81.1 16 80 C16 78.7 16 77.4 16 76 C16.7 76.3 16.7 76.3 20 78 C20.3 79.3 20.7 80.6 21 82 C20.7 82.3 20.3 82.7 20 83 C22 83.7 24 84.3 26 85 C26 85.3 26 85.7 26 86 C19.2 85.5 13 84.4 6.4 82.6 C5.5 82.4 5.5 82.4 1.1 81.3 C-2.6 80.3 -6.2 79.3 -9.9 78.3 C-11.7 77.9 -13.4 77.4 -15.2 77 C-16.8 76.5 -18.4 76.1 -20 75.7 C-24 75 -24 75 -28 77 C-28.1 84.4 -28.2 91.9 -28.3 99.3 C-28.3 100.4 -28.3 100.4 -28.4 105.7 C-28.5 107.8 -28.5 109.8 -28.5 111.9 C-28.5 113.7 -28.5 115.6 -28.6 117.5 C-28.4 119 -28.2 120.5 -28 122 C-22.4 125.4 -17.6 126.5 -11.2 128.1 C-7.5 129 -3.7 129.9 0 131 C0.3 131.7 0.7 132.3 1 133 C-6.9 132.2 -14.2 130.1 -21.7 128 C-26 127 -26 127 -30 128 C-31.3 127.3 -32.6 126.7 -34 126 C-34 125.3 -34 124.7 -34 124 C-34.7 124 -35.3 124 -36 124 C-35 125.3 -34 126.6 -33 128 C-33.3 128.7 -33.7 129.3 -34 130 C-34.7 130 -35.3 130 -36 130 C-36 130.7 -36 131.3 -36 132 C-43 131 -43 131 -46 129 C-45.7 126.7 -45.3 124.4 -45 122 C-41.6 119.7 -41.6 119.7 -38 118 C-37.7 117.7 -37.7 117.7 -36 116 C-36.8 116.2 -36.8 116.2 -41 117 C-41.7 116.7 -42.3 116.3 -43 116 C-43 115.3 -43 114.7 -43 114 C-41.7 114.3 -40.4 114.7 -39 115 C-39.3 113.7 -39.7 112.4 -40 111 C-40.7 111 -41.3 111 -42 111 C-42 111.7 -42 112.3 -42 113 C-44 112.7 -46 112.3 -48 112 C-48.3 111.3 -48.7 110.7 -49 110 C-48.8 109.7 -48.8 109.7 -48 108 C-49.3 107.3 -50.6 106.7 -52 106 C-55 102 -55 102 -55 99 C-57 96 -57 96 -58 95 C-60.8 121.8 -60.8 121.8 -56 129 C-60 128 -60 128 -62 126 C-62.2 123.1 -62.3 120.2 -62.4 117.4 C-62.4 116.4 -62.4 116.4 -62.5 111.8 C-62.5 109.8 -62.5 107.8 -62.5 105.7 C-62.5 103.7 -62.5 101.7 -62.6 99.6 C-62.6 95.2 -62.6 90.9 -62.6 86.6 C-62.7 82.1 -62.7 77.7 -62.8 73.2 C-62.9 66.8 -62.9 60.4 -62.9 54.1 C-63 52.1 -63 50.1 -63.1 48 C-63 34.2 -63 34.2 -57.8 27.9 C-44.7 20 -44.7 20 -41 20 C-41 19.3 -41 18.7 -41 18 C-39 17 -37 16 -35 15 C-33.4 14 -31.7 13 -30 12 C-29 12 -28 12 -27 12 C-27 11.3 -27 10.7 -27 10 C-19.4 7.5 -12.4 10.1 -5 12 Z M29 72 C30 74 30 74 30 74 Z M-41 120 C-41.3 121.3 -41.7 122.6 -42 124 C-41 123.7 -40 123.3 -39 123 C-39.3 122 -39.7 121 -40 120 C-40.3 120 -40.7 120 -41 120 Z M-34 122 C-33 124 -33 124 -33 124 Z M-44 124 C-44 125 -44 126 -44 127 C-43.3 127 -42.7 127 -42 127 C-42 126 -42 125 -42 124 C-42.7 124 -43.3 124 -44 124 Z M47 29 C47.3 30 47.7 31 48 32 C47 33.3 46 34.6 45 36 C45 31 45 31 47 29 Z M22 77 C22.7 77.7 23.3 78.3 24 79 C23.3 79 22.7 79 22 79 C22 78.3 22 77.7 22 77 Z M38 82 C38.7 82 39.3 82 40 82 C40 82.7 40 83.3 40 84 C40.7 84 41.3 84 42 84 C42.7 84.7 43.3 85.3 44 86 C48 87 48 87 52 87 C53 88.3 54 89.6 55 91 C53.3 91.7 51.7 92.3 50 93 C49 92.3 48 91.7 47 91 C46.7 91.5 46.7 91.5 45 94 C44.3 94 43.7 94 43 94 C42.9 98.2 42.9 102.5 42.9 106.8 C42.9 109.1 42.8 111.5 42.8 113.9 C43 120 43 120 45 124 C44.3 124 43.7 124 43 124 C42.9 126.4 42.8 128.8 42.8 131.2 C42 139 42 139 38 143 C37 142.7 36 142.3 35 142 C35.8 141.2 35.8 141.2 40 137 C40.5 132.2 40.5 132.2 40.3 126.4 C40.2 124.4 40.1 122.3 40.1 120.2 C40 118.1 39.9 115.9 39.8 113.7 C39.7 111.5 39.7 109.3 39.6 107.1 C39.4 101.7 39.2 96.4 39 91 C37.2 90.5 35.5 90.1 33.6 89.6 C28 88 28 88 26 86 C28.3 86 30.6 86 33 86 C34.7 85.3 36.3 84.7 38 84 C38 83.3 38 82.7 38 82 Z M50 83 C50.7 83 51.3 83 52 83 C56 87 56 87 56 89 C52 87 52 87 50 83 Z M-58 103 C-57.3 104.3 -56.7 105.6 -56 107 C-56.7 106.7 -57.3 106.3 -58 106 C-58 105 -58 104 -58 103 Z M-55 105 C-54.3 105.3 -53.7 105.7 -53 106 C-53 106.7 -53 107.3 -53 108 C-51.7 108.7 -50.4 109.3 -49 110 C-49.7 110 -50.3 110 -51 110 C-51 110.7 -51 111.3 -51 112 C-51.7 112 -52.3 112 -53 112 C-53 113.3 -53 114.6 -53 116 C-54.6 116.3 -56.3 116.7 -58 117 C-58 113.7 -58 110.3 -58 107 C-57.7 107.5 -57.7 107.5 -56 110 C-55.7 108.3 -55.3 106.7 -55 105 Z M-47 113 C-45 114 -45 114 -45 114 Z M-50 114 C-48.3 115.7 -46.7 117.3 -45 119 C-45.3 120 -45.7 121 -46 122 C-47.3 120.7 -48.6 119.4 -50 118 C-50 116.7 -50 115.4 -50 114 Z M-46 115 C-44.7 115.7 -43.4 116.3 -42 117 C-42.3 117.7 -42.7 118.3 -43 119 C-44.3 118.3 -45.6 117.7 -47 117 C-46.7 116.3 -46.3 115.7 -46 115 Z M-48 131 C-45.3 131.3 -42.7 131.6 -40 132 C-39.7 132.7 -39.3 133.3 -39 134 C-41.3 134 -43.6 134 -46 134 C-46.7 133 -47.3 132 -48 131 Z M1 133 C5 134 5 134 5 134 Z M5 134 C11.8 134.5 17.6 135.6 24 138 C24 138.3 24 138.7 24 139 C17.3 138.5 11.4 137.1 5 135 C5 134.7 5 134.3 5 134 Z M24 139 C28 140 28 140 28 140 Z M32 141 C35 142 35 142 35 142 Z " fill="#D5A477" transform="translate(74,32)"/>
<path d="M0 0 C0.7 0 1.3 0 2 0 C4.1 8.5 4.1 8.5 3 13 C2 8.7 1 4.4 0 0 Z M-3 2 C-2 2.3 -1 2.7 0 3 C1.1 7 2 11 3 15 C5.7 20.3 7.8 23 12 27 C13 26.7 14 26.3 15 26 C15 24.7 15 23.4 15 22 C13.3 21.3 11.7 20.7 10 20 C6.5 15.1 5.4 11 5 5 C11.7 6.4 18.4 8.2 25 10 C25 10.7 25 11.3 25 12 C26.8 12.2 26.8 12.2 36 13 C36 13.7 36 14.3 36 15 C37.1 15.1 38.3 15.2 39.4 15.4 C44.2 16 48.8 17 53.4 18 C54.2 18.2 54.2 18.2 58.2 19.1 C62 20 62 20 63 21 C63.9 34.6 63.9 48.2 64.1 61.8 C64.1 66.4 64.3 71 64.4 75.6 C64.6 82.3 64.7 88.9 64.8 95.5 C64.9 97.6 65 99.6 65.1 101.8 C65.1 115.8 65.1 115.8 59.1 122.2 C54.5 125.5 49.9 128.3 45 131 C44.1 131.6 44.1 131.6 39.7 134.7 C39.1 135.1 39.1 135.1 35.8 137.3 C34.4 138.2 33.1 139.1 31.7 140.1 C28 142 28 142 22 142 C22.7 141 23.3 140 24 139 C24.2 136.1 24.2 133.2 24.2 130.3 C24.2 129.4 24.2 129.4 24.2 124.8 C24.2 123.8 24.2 123.8 24.2 118.8 C24.2 116.8 24.2 114.8 24.2 112.7 C24.2 106.2 24.2 99.8 24.1 93.3 C24.1 88.9 24.1 84.6 24.1 80.2 C24.1 69.5 24 58.7 24 48 C21 47.3 18.1 46.7 15 46 C15.3 46.5 15.3 46.5 16.9 49.2 C20.3 56.9 22 63.2 19.1 71.2 C18.4 72.5 17.7 73.7 17 75 C15 74.7 13 74.3 11 74 C11.5 73.8 11.5 73.8 14 73 C15 72 15 72 15.3 64.6 C15.2 55 13.5 48.9 7.1 41.6 C3 38 3 38 -3 35 C-9.3 27.4 -9.4 23.6 -9 14 C-7.5 9.1 -6.1 6.1 -3 2 Z M17 69 C18 71 18 71 18 71 Z M4 13 C7 17 7 17 9 22 C5 18 5 18 4 13 Z M9 22 C10.3 22.3 11.6 22.7 13 23 C13 23.7 13 24.3 13 25 C11.7 24.7 10.4 24.3 9 24 C9 23.3 9 22.7 9 22 Z M5 68 C7 69 7 69 7 69 Z M3 69 C5.3 69 7.6 69 10 69 C10.7 69.7 11.3 70.3 12 71 C7 72 7 72 3 70 C3 69.7 3 69.3 3 69 Z M9 72 C11 73 11 73 11 73 Z " fill="#B68255" transform="translate(130,55)"/>
<path d="M0 0 C2.3 0.5 4.6 1.1 7 1.6 C9.2 2.1 11.4 2.7 13.6 3.2 C14.6 3.4 14.6 3.4 19.7 4.6 C25.4 6.3 29.5 8.2 32.9 13.2 C33.1 16 33.1 18.8 33.1 21.7 C33.2 23.5 33.2 25.2 33.2 27.1 C33.2 29 33.2 30.9 33.2 32.9 C33.2 34.9 33.2 36.9 33.2 38.9 C33.2 43.1 33.2 47.3 33.2 51.5 C33.2 57.9 33.2 64.3 33.2 70.7 C33.2 74.8 33.2 78.9 33.2 82.9 C33.2 84.8 33.3 86.8 33.3 88.7 C33.3 90.5 33.3 92.3 33.2 94.2 C33.2 95.8 33.2 97.3 33.2 98.9 C32.9 103.2 32.9 103.2 29.9 110.2 C25.6 113.7 21.3 117 16.9 120.2 C14.7 121.9 12.5 123.6 10.2 125.3 C4.9 129.2 4.9 129.2 1.9 129.2 C1.9 126.8 1.9 124.3 1.9 121.8 C2 100.8 1.8 79.7 1.5 58.7 C1.5 56.4 1.4 54.1 1.4 51.7 C1.4 49.6 1.3 47.5 1.3 45.3 C1.3 43.4 1.2 41.5 1.2 39.5 C0.9 35.2 0.9 35.2 -1.1 33.2 C-6.6 31.5 -12.1 30.2 -17.8 29.1 C-22.1 28.2 -22.1 28.2 -23.1 27.2 C-24.8 26.9 -26.4 26.5 -28.1 26.2 C-33.1 25.2 -33.1 25.2 -34.1 24.2 C-34.3 23 -34.3 23 -35.1 17.2 C-44.1 11.8 -52.3 12.3 -62.4 14.7 C-64 15.2 -65.5 15.7 -67.1 16.2 C-66.1 13.2 -66.1 13.2 -62.5 11.3 C-61.1 10.6 -59.6 9.9 -58.1 9.2 C-55.8 7.5 -53.4 5.9 -51.1 4.2 C-48.8 2.8 -46.5 1.5 -44.1 0.2 C-42.3 -1.1 -40.5 -2.3 -38.7 -3.6 C-27.4 -10.1 -12.1 -2.9 0 0 Z " fill="#BC8A5C" transform="translate(207.125,30.8125)"/>
</svg>
