<svg xmlns="http://www.w3.org/2000/svg" viewBox="0 0 128 128" width="128" height="128"><g stroke="#44210D" stroke-width="6" stroke-linejoin="round" stroke-linecap="round">
<path d="M52 16C52 41.16 60.84 50 86 50C60.84 50 52 58.84 52 84C52 58.84 43.16 50 18 50C43.16 50 52 41.16 52 16Z" fill="#F3987C"/>
<path d="M92 60C92 74.8 97.2 80 112 80C97.2 80 92 85.2 92 100C92 85.2 86.8 80 72 80C86.8 80 92 74.8 92 60Z" fill="#EF7B61"/>
<path d="M34 82C34 92.36 37.64 96 48 96C37.64 96 34 99.64 34 110C34 99.64 30.36 96 20 96C30.36 96 34 92.36 34 82Z" fill="#F9CDB8"/></g></svg>